<?xml version="1.0" encoding="UTF-8"?>
<svg version="1.1" xmlns="http://www.w3.org/2000/svg" width="1080" height="1080">
<path d="M0 0 C0.92135742 0.16097168 1.84271484 0.32194336 2.79199219 0.48779297 C51.44788037 9.2418164 96.45823073 32.80553847 132 67 C132.94045166 67.89960449 132.94045166 67.89960449 133.89990234 68.81738281 C143.0933837 77.65718318 151.46045334 86.7137367 159 97 C159.42474609 97.56928223 159.84949219 98.13856445 160.28710938 98.72509766 C166.3753638 106.89266136 171.88524812 115.32126647 176.94726562 124.16162109 C177.93792864 125.89160545 178.94499742 127.6121656 179.953125 129.33203125 C189.02424045 145.46460445 195.89478665 163.0297809 200.9375 180.8125 C201.19539307 181.71532715 201.45328613 182.6181543 201.71899414 183.54833984 C204.50268716 193.93775649 206.06296505 204.34630775 208 215 C208.33 143.06 208.66 71.12 209 -3 C233.67695077 -3 233.67695077 -3 242.6875 -1.875 C243.76435059 -1.74375732 244.84120117 -1.61251465 245.95068359 -1.47729492 C288.27595779 4.0827712 329.51938266 20.30209393 363 47 C364.34578125 48.05767578 364.34578125 48.05767578 365.71875 49.13671875 C381.88590173 62.07508587 397.24007915 76.68322013 410 93 C410.97646484 94.175625 410.97646484 94.175625 411.97265625 95.375 C446.79442217 137.46572302 463.51856004 192.31233796 463.3125 246.375 C463.31034485 247.3909021 463.3081897 248.4068042 463.30596924 249.45349121 C463.11613063 305.26165164 447.60827518 359.2663466 412 403 C411.37222656 403.80050781 410.74445312 404.60101562 410.09765625 405.42578125 C394.73022289 424.74238742 376.97842343 441.55216577 357 456 C356.38576172 456.4444043 355.77152344 456.88880859 355.13867188 457.34667969 C339.28472536 468.66719803 322.0379847 477.39772334 304.125 484.9375 C303.48949219 485.20672272 302.85398437 485.47594543 302.19921875 485.75332642 C289.73413839 491.00416893 276.95544932 495.44386754 263.6875 498.1875 C262.93388184 498.34839111 262.18026367 498.50928223 261.40380859 498.67504883 C259.27102981 499.12618716 257.13617485 499.56527338 255 500 C253.95714844 500.2165625 252.91429687 500.433125 251.83984375 500.65625 C241.42802071 502.69367149 231.16485698 503.05691523 220.58203125 503.0234375 C219.56290649 503.02174561 218.54378174 503.02005371 217.49377441 503.01831055 C214.99584091 503.01391922 212.4979249 503.00776885 210 503 C209.99365209 501.75216736 209.99365209 501.75216736 209.98717594 500.47912598 C209.88264779 479.98314041 209.77386066 459.48718102 209.66066074 438.99124146 C209.60600886 429.07848025 209.55267951 419.16571556 209.50268555 409.25292969 C209.44470851 397.79359591 209.38324351 386.33428572 209.31640625 374.875 C209.31099335 373.94695557 209.30558045 373.01891113 209.30000353 372.06274414 C209.12839701 343.03485266 208.79899317 314.01856085 208 285 C207.86282562 285.75998795 207.72565125 286.51997589 207.58432007 287.30299377 C202.26386628 316.68942359 194.10477331 343.57732976 180 370 C179.49049805 370.96897217 179.49049805 370.96897217 178.97070312 371.95751953 C170.96875 387.09342994 161.18198818 401.04046841 150 414 C149.35417969 414.75667969 148.70835937 415.51335937 148.04296875 416.29296875 C136.52176153 429.44432767 124.1272337 441.68094178 110 452 C108.84894983 452.85806152 107.69790823 453.71613451 106.546875 454.57421875 C98.35724019 460.61177396 89.85461724 465.99457302 81 471 C80.29278809 471.4021875 79.58557617 471.804375 78.85693359 472.21875 C41.84560743 493.05644408 -0.18384334 503.51452949 -42.5625 503.3125 C-43.38560669 503.31034485 -44.20871338 503.3081897 -45.0567627 503.30596924 C-82.25955799 503.15071079 -118.47126577 495.30364128 -152 479 C-152.89477051 478.56558594 -153.78954102 478.13117188 -154.71142578 477.68359375 C-180.35264585 465.08882993 -202.38900179 448.67811003 -223 429 C-223.67417969 428.36707031 -224.34835938 427.73414063 -225.04296875 427.08203125 C-229.2969945 422.9837593 -232.98778291 418.47756646 -236.68359375 413.875 C-238.17495378 412.0240034 -239.68661746 410.18909151 -241.22265625 408.375 C-268.22468393 376.37259683 -285.37965332 335.93171199 -293 295 C-293.16226074 294.1843457 -293.32452148 293.36869141 -293.49169922 292.52832031 C-298.78911473 265.0080007 -298.6767364 232.44010945 -293 205 C-292.80132324 204.02224609 -292.60264648 203.04449219 -292.39794922 202.03710938 C-282.89773934 156.63535729 -263.14537008 113.82806996 -231 80 C-229.80523226 78.63131037 -228.61719728 77.25670024 -227.4375 75.875 C-220.30806613 67.71520506 -212.48080945 60.7227277 -204 54 C-202.92761957 53.12593877 -201.85602952 52.2509071 -200.78515625 51.375 C-179.89610013 34.427676 -156.1116945 21.5569441 -131 12 C-130.29166016 11.72994141 -129.58332031 11.45988281 -128.85351562 11.18164062 C-88.50975941 -3.87754948 -42.38303694 -7.67897053 0 0 Z " fill="#FFFFFF" transform="translate(453,290)"/>
</svg>
